<svg width="32" height="32" viewBox="0 0 32 32" fill="none" xmlns="http://www.w3.org/2000/svg">
  <rect width="32" height="32" rx="8" fill="url(#gradient)"/>
  <path d="M8 12C8 10.6863 8.68629 8 10.6863C8 12.6863 8.68629 14 10.6863C8 16 8.68629 16 10.6863C16 12.6863 15.3137 12 14.6863C15.3137 16 14.6863 14 12.6863C14 8.68629 15.3137 8 16 8.68629C16 8 14.6863 16 10.6863C16 12.6863 15.3137 12 14.6863Z" fill="white" opacity="0.9"/>
  <path d="M12 6C13.6569 6 15 7.34315 15 9C15 10.6569 13.6569 12 12.6863C12 13.6569 10.3431 12 9C10.3431 12 10.6569 12 13.6569C12 15 13.6569 15 10.6569C15 9 13.6569 15 7.34315C15 6 13.6569 12 6Z" fill="white"/>
  <circle cx="10" cy="9" r="1.5" fill="white"/>
  <path d="M16 20C16 18.2091 15.2091 16 17C15.2091 18 14 18C14 18 16 18.2091C16 18 16 20C16 20 16 20Z" fill="white" opacity="0.7"/>
  <defs>
    <linearGradient id="gradient" x1="0" y1="0" x2="32" y2="32" gradientUnits="userSpaceOnUse">
      <stop stop-color="#3B82F6"/>
      <stop offset="0.5" stop-color="#9333EA"/>
      <stop offset="1" stop-color="#DC2626"/>
    </linearGradient>
  </defs>
</svg>
